<?xml version="1.0" encoding="UTF-8" standalone="no"?>
<svg width="60px" height="60px" viewBox="0 0 60 60" version="1.1" xmlns="http://www.w3.org/2000/svg" xmlns:xlink="http://www.w3.org/1999/xlink">
    <defs>
        <rect id="path-1" x="20" y="20" width="20" height="20"></rect>
    </defs>
    <g id="Page-1" stroke="none" stroke-width="1" fill="none" fill-rule="evenodd">
        <g id="Categories" transform="translate(-320.000000, -742.000000)">
            <g id="machine_learning" transform="translate(320.000000, 742.000000)">
                <rect id="Rectangle-12" stroke="#5000BE" stroke-width="3" x="11.5" y="11.5" width="37" height="37"></rect>
                <g id="Rectangle-12">
                    <use fill="#5000BE" fill-rule="evenodd" xlink:href="#path-1"></use>
                    <rect stroke="#5000BE" stroke-width="3" x="21.5" y="21.5" width="17" height="17"></rect>
                </g>
                <g id="top" transform="translate(17.333333, 0.000000)" stroke="#5000BE" stroke-width="2" stroke-linejoin="round">
                    <path d="M9,0 L9,6.66666667" id="pins"></path>
                    <path d="M17,0 L17,6.66666667" id="pins"></path>
                    <path d="M25,0 L25,6.66666667" id="pins"></path>
                    <path d="M1,0 L1,6.66666667" id="pins"></path>
                </g>
                <g id="bot" transform="translate(17.333333, 53.333333)" stroke="#5000BE" stroke-width="2" stroke-linejoin="round">
                    <path d="M9,0 L9,6.66666667" id="pins"></path>
                    <path d="M17,0 L17,6.66666667" id="pins"></path>
                    <path d="M25,0 L25,6.66666667" id="pins"></path>
                    <path d="M1,0 L1,6.66666667" id="pins"></path>
                </g>
                <g id="right" transform="translate(56.833333, 29.666667) rotate(-90.000000) translate(-56.833333, -29.666667) translate(43.833333, 26.166667)" stroke="#5000BE" stroke-width="2" stroke-linejoin="round">
                    <path d="M9,0 L9,6.66666667" id="pins"></path>
                    <path d="M17,0 L17,6.66666667" id="pins"></path>
                    <path d="M25,0 L25,6.66666667" id="pins"></path>
                    <path d="M1,0 L1,6.66666667" id="pins"></path>
                </g>
                <g id="left" transform="translate(3.500000, 29.666667) rotate(-90.000000) translate(-3.500000, -29.666667) translate(-9.500000, 26.166667)" stroke="#5000BE" stroke-width="2" stroke-linejoin="round">
                    <path d="M9,0 L9,6.66666667" id="pins"></path>
                    <path d="M17,0 L17,6.66666667" id="pins"></path>
                    <path d="M25,0 L25,6.66666667" id="pins"></path>
                    <path d="M1,0 L1,6.66666667" id="pins"></path>
                </g>
            </g>
        </g>
    </g>
</svg>