<?xml version="1.0" encoding="UTF-8" standalone="no"?>
<svg width="64px" height="41px" viewBox="0 0 64 41" version="1.1" xmlns="http://www.w3.org/2000/svg" xmlns:xlink="http://www.w3.org/1999/xlink">
    <g id="Page-1" stroke="none" stroke-width="1" fill="none" fill-rule="evenodd">
        <g id="Categories" transform="translate(-603.000000, -755.000000)">
            <g id="computer_vision" transform="translate(605.000000, 746.000000)">
                <rect id="bound" x="0" y="0" width="60" height="60"></rect>
                <path d="M30,47.6666667 C41.045695,47.6666667 51.045695,41.5555556 60,29.3333333 C51.045695,17.1111111 41.045695,11 30,11 C18.954305,11 8.954305,17.1111111 0,29.3333333 C8.954305,41.5555556 18.954305,47.6666667 30,47.6666667 Z" id="Oval" stroke="#5000BE" stroke-width="3" stroke-linecap="round" stroke-linejoin="round"></path>
                <circle id="Oval-2" stroke="#5000BE" stroke-width="2.85" stroke-linecap="round" stroke-linejoin="round" cx="30.5" cy="29.5" r="14.5"></circle>
                <path d="M25.6582278,24.0617054 C27.0627397,22.7826861 28.9480036,22 31.0205909,22 C31.5240741,22 32.016503,22.0461883 32.4936709,22.1344599 L28.5058539,28.875 L25.6582278,24.0617054 L25.6582278,24.0617054 Z M24.8014616,24.6736113 L28.6962025,31.5486111 L23.2301202,31.5486111 C23.0798444,30.9436306 23,30.3100516 23,29.6574669 C23,27.7556076 23.6781524,26.0151707 24.8014616,24.6736111 L24.8014616,24.6736113 Z M33.0736012,22.3819444 C35.4645944,23.1294519 37.3687481,24.9838507 38.1898734,27.3472222 L30.2151899,27.3472222 L33.0736012,22.3819444 L33.0736012,22.3819444 Z M31.3544304,32.6944444 L28.6170065,37.2777778 C26.2057899,36.6483484 24.2587645,34.9260066 23.3797468,32.6944444 L31.3544304,32.6944444 Z M29.4556962,37.5732318 L33.2729654,30.7847222 L35.9113924,35.4768166 C34.5295209,36.8293395 32.6585401,37.6597222 30.5986643,37.6597222 C30.2102893,37.6597222 29.8286292,37.6302034 29.4556962,37.5732318 L29.4556962,37.5732318 Z M32.8734177,28.1111111 L38.3804842,28.1111111 C38.5042954,28.6760396 38.5696203,29.2635556 38.5696203,29.8666687 C38.5696203,31.8142623 37.8884156,33.5992111 36.7562853,34.9861111 L32.8734177,28.1111111 L32.8734177,28.1111111 Z" id="Combined-Shape-Copy" fill="#5000BE"></path>
            </g>
        </g>
    </g>
</svg>